<svg width="84" height="50" viewBox="0 0 84 50" fill="none" xmlns="http://www.w3.org/2000/svg">
<g clip-path="url(#clip0_4_23940)">
<path d="M1.57493 43.3351L4.40981 48.3749C4.50928 48.5241 4.64191 48.607 4.82427 48.607C5.00663 48.607 5.13926 48.5241 5.23873 48.3749L8.07361 43.3351H9.64854L6.43236 49.0546C6.25 49.3696 6.0179 49.6017 5.73607 49.7675C5.43767 49.9167 5.13926 49.9996 4.82427 49.9996C4.50928 49.9996 4.21088 49.9167 3.91247 49.7675C3.61406 49.6183 3.39854 49.3696 3.21618 49.0546L0 43.3351H1.57493ZM15.0033 49.7012C14.5557 49.7012 14.1412 49.6183 13.7599 49.4525C13.3786 49.2867 13.0305 49.0546 12.7487 48.7728C12.4503 48.4744 12.2347 48.1428 12.069 47.7615C11.9032 47.3802 11.8203 46.9658 11.8203 46.5181C11.8203 46.0705 11.9032 45.6561 12.069 45.2748C12.2347 44.8935 12.4668 44.5453 12.7487 44.2635C13.0471 43.9817 13.3786 43.7496 13.7599 43.5838C14.1412 43.418 14.5557 43.3351 15.0033 43.3351H19.7613C20.2089 43.3351 20.6233 43.418 21.0046 43.5838C21.3859 43.7496 21.7341 43.9817 22.0159 44.2635C22.2977 44.5453 22.5298 44.8935 22.6956 45.2748C22.8614 45.6561 22.9443 46.0705 22.9443 46.5181C22.9443 46.9658 22.8614 47.3802 22.6956 47.7615C22.5298 48.1428 22.2977 48.491 22.0159 48.7728C21.7175 49.0712 21.3859 49.2867 21.0046 49.4525C20.6233 49.6183 20.2089 49.7012 19.7613 49.7012H15.0033ZM19.7613 48.3086C20.0099 48.3086 20.242 48.2589 20.4576 48.176C20.6731 48.0765 20.872 47.9604 21.0212 47.7947C21.1704 47.6289 21.3196 47.4465 21.4025 47.231C21.502 47.0155 21.5351 46.7834 21.5351 46.5347C21.5351 46.286 21.4854 46.0539 21.4025 45.8384C21.303 45.6229 21.187 45.424 21.0212 45.2748C20.8554 45.1256 20.6731 44.9764 20.4576 44.8935C20.242 44.794 20.0099 44.7608 19.7613 44.7608H15.0033C14.7546 44.7608 14.5225 44.8106 14.307 44.8935C14.0915 44.9929 13.8926 45.109 13.7434 45.2748C13.5776 45.4406 13.445 45.6229 13.3621 45.8384C13.2626 46.0539 13.2294 46.286 13.2294 46.5347C13.2294 46.7834 13.2792 47.0155 13.3621 47.231C13.4615 47.4465 13.5776 47.6455 13.7434 47.7947C13.9092 47.9604 14.0915 48.0931 14.307 48.176C14.5225 48.2754 14.7546 48.3086 15.0033 48.3086H19.7613ZM27.1552 43.3351L29.9901 48.3749C30.0895 48.5241 30.2221 48.607 30.4045 48.607C30.5869 48.607 30.7195 48.5241 30.819 48.3749L33.6538 43.3351H35.2288L31.996 49.038C31.8137 49.353 31.5816 49.5851 31.2997 49.7509C31.0013 49.9001 30.7029 49.983 30.3879 49.983C30.0729 49.983 29.7745 49.9001 29.4761 49.7509C29.1777 49.6017 28.9622 49.353 28.7798 49.038L25.5637 43.3185H27.1552V43.3351ZM40.1691 43.2854H44.6121C44.9271 43.2854 45.2255 43.3517 45.5073 43.4677C45.7891 43.5838 46.0212 43.7496 46.2367 43.9651C46.4357 44.1806 46.6015 44.4127 46.7175 44.6945C46.8336 44.9764 46.8999 45.2748 46.8999 45.5898V49.7012H45.5073V48.1594H39.2739V49.7012H37.8813V45.5898C37.8813 45.2748 37.9476 44.9764 38.0637 44.6945C38.1797 44.4127 38.3455 44.164 38.5444 43.9651C38.7434 43.7496 38.992 43.5838 39.2739 43.4677C39.5557 43.3517 39.8541 43.2854 40.1691 43.2854ZM39.2739 46.7668H45.5073V45.6063C45.5073 45.3577 45.4244 45.1421 45.242 44.9764C45.0597 44.794 44.8607 44.7111 44.6121 44.7111H40.1691C39.9204 44.7111 39.7049 44.794 39.5391 44.9764C39.3568 45.1587 39.2739 45.3577 39.2739 45.6063V46.7668ZM58.5378 43.3351V48.9386C58.5378 49.1375 58.4881 49.3033 58.3886 49.4525C58.2891 49.6017 58.1565 49.7012 58.0073 49.7841C57.8581 49.8504 57.6923 49.8835 57.5099 49.8835C57.3276 49.8669 57.1618 49.8006 57.0292 49.6846L51.3428 45.0924V49.7509H49.9503V44.1475C49.9503 43.9485 50 43.7827 50.0995 43.6335C50.1989 43.4843 50.3316 43.3849 50.4808 43.302C50.63 43.2356 50.7958 43.2025 50.9615 43.2191C51.1273 43.2356 51.2931 43.302 51.4423 43.418L57.1452 48.0102V43.3683H58.5378V43.3351ZM71.0875 48.3086V49.7012H63.9257C63.6107 49.7012 63.3123 49.6349 63.0305 49.5188C62.7487 49.4028 62.5166 49.237 62.3011 49.038C62.0855 48.8391 61.9363 48.5904 61.8203 48.3086C61.7042 48.0268 61.6379 47.7284 61.6379 47.4134V45.6229C61.6379 45.3079 61.7042 45.0095 61.8203 44.7277C61.9363 44.4459 62.1021 44.1972 62.3011 43.9982C62.5 43.7827 62.7487 43.6169 63.0305 43.5009C63.3123 43.3849 63.6107 43.3185 63.9257 43.3185L71.0875 43.3351V44.7277H63.9257C63.6771 44.7277 63.4615 44.8106 63.2958 44.9929C63.13 45.1753 63.0305 45.3742 63.0305 45.6229V47.4134C63.0305 47.662 63.1134 47.8776 63.2958 48.0433C63.4781 48.2091 63.6771 48.3086 63.9257 48.3086H71.0875ZM83.372 48.3086V49.7012H76.2102C75.8952 49.7012 75.5968 49.6349 75.315 49.5188C75.0332 49.4028 74.8011 49.237 74.5855 49.038C74.3866 48.8391 74.2208 48.5904 74.1048 48.3086C73.9887 48.0268 73.9224 47.7284 73.9224 47.4134V45.6229C73.9224 45.3079 73.9887 45.0095 74.1048 44.7277C74.2208 44.4459 74.3866 44.1972 74.5855 43.9982C74.7845 43.7827 75.0332 43.6169 75.315 43.5009C75.5968 43.3849 75.8952 43.3185 76.2102 43.3185L83.372 43.3351V44.7277H76.2102C75.9615 44.7277 75.746 44.8106 75.5802 44.9929C75.3979 45.1753 75.315 45.3742 75.315 45.6229V45.8053H82.9576V47.2144H75.315V47.4134C75.315 47.662 75.3979 47.8776 75.5802 48.0433C75.7626 48.2257 75.9615 48.3086 76.2102 48.3086H83.372Z" fill="#389583"/>
<path d="M36.5218 12.3509C36.3726 12.1851 36.1902 11.9862 35.9913 11.7873L34.4827 10.1626L34.4164 10.2289C31.7141 7.70901 27.4535 4.47625 23.0768 4.17784C16.2632 3.69707 10.61 8.73686 10.61 8.73686L27.1219 26.4424C27.2711 26.6082 27.4535 26.8072 27.6524 27.0061L29.161 28.6308L29.2274 28.5644C31.9296 31.0843 36.2068 34.085 40.5669 34.6155C47.3474 35.4444 53.0337 30.0565 53.0337 30.0565L36.5218 12.3509Z" fill="url(#paint0_linear_4_23940)"/>
<path d="M66.7605 7.97424L69.1312 5.28856C68.982 5.22225 68.8162 5.13936 68.667 5.07305L67.8215 6.01801L65.7327 4.16124L65.8321 4.04519C64.1909 3.59758 62.3507 3.34891 60.4442 3.54785C56.0841 3.99546 51.9396 7.36084 49.3202 9.98021L49.2539 9.93047L47.795 11.6049C47.6126 11.8204 47.4303 12.0028 47.2811 12.1851L31.366 30.4378C31.366 30.4378 37.1684 35.2952 43.982 34.5823C48.3421 34.1347 52.4867 30.7693 55.106 28.15L55.1723 28.1997L56.6312 26.5253C56.8136 26.3098 56.9959 26.1274 57.1451 25.9451L70.1922 10.9915L66.7605 7.97424Z" fill="url(#paint1_linear_4_23940)"/>
<path d="M70.524 10.4938L67.822 8.08979L70.209 5.40479L72.911 7.79178L70.524 10.4938Z" fill="url(#paint2_linear_4_23940)"/>
<path d="M71.767 5.355L70.176 3.946L71.585 2.354L73.16 3.763L71.767 5.355Z" fill="url(#paint3_linear_4_23940)"/>
<path d="M71.999 1.956L70.955 1.028L71.883 0L72.911 0.912L71.999 1.956Z" fill="url(#paint4_linear_4_23940)"/>
<path d="M73.989 2.45389L73.458 1.97289L73.939 1.44189L74.469 1.92289L73.989 2.45389Z" fill="url(#paint5_linear_4_23940)"/>
<path d="M67.954 5.30505L66.18 3.73005L67.755 1.95605L69.529 3.53105L67.954 5.30505Z" fill="url(#paint6_linear_4_23940)"/>
<g opacity="0.098" filter="url(#filter0_f_4_23940)">
<path d="M42 37.5C54.1503 37.5 64 37.0523 64 36.5C64 35.9477 54.1503 35.5 42 35.5C29.8497 35.5 20 35.9477 20 36.5C20 37.0523 29.8497 37.5 42 37.5Z" fill="url(#paint7_radial_4_23940)"/>
</g>
</g>
<defs>
<filter id="filter0_f_4_23940" x="18.9" y="34.4" width="46.2" height="4.2" filterUnits="userSpaceOnUse" color-interpolation-filters="sRGB">
<feFlood flood-opacity="0" result="BackgroundImageFix"/>
<feBlend mode="normal" in="SourceGraphic" in2="BackgroundImageFix" result="shape"/>
<feGaussianBlur stdDeviation="0.55" result="effect1_foregroundBlur_4_23940"/>
</filter>
<linearGradient id="paint0_linear_4_23940" x1="10.61" y1="959.745" x2="3094.05" y2="3098.91" gradientUnits="userSpaceOnUse">
<stop stop-color="#8DE4AF"/>
<stop offset="1" stop-color="#389583"/>
</linearGradient>
<linearGradient id="paint1_linear_4_23940" x1="31.366" y1="2803.33" x2="3194.34" y2="9.63845" gradientUnits="userSpaceOnUse">
<stop stop-color="#8DE4AF"/>
<stop offset="1" stop-color="#389583"/>
</linearGradient>
<linearGradient id="paint2_linear_4_23940" x1="67.822" y1="259.855" x2="576.722" y2="259.855" gradientUnits="userSpaceOnUse">
<stop stop-color="#8DE4AF"/>
<stop offset="1" stop-color="#389583"/>
</linearGradient>
<linearGradient id="paint3_linear_4_23940" x1="70.176" y1="152.404" x2="368.576" y2="152.404" gradientUnits="userSpaceOnUse">
<stop stop-color="#8DE4AF"/>
<stop offset="1" stop-color="#389583"/>
</linearGradient>
<linearGradient id="paint4_linear_4_23940" x1="70.955" y1="97.8" x2="266.555" y2="97.8" gradientUnits="userSpaceOnUse">
<stop stop-color="#8DE4AF"/>
<stop offset="1" stop-color="#389583"/>
</linearGradient>
<linearGradient id="paint5_linear_4_23940" x1="73.458" y1="52.0419" x2="174.558" y2="52.0419" gradientUnits="userSpaceOnUse">
<stop stop-color="#8DE4AF"/>
<stop offset="1" stop-color="#389583"/>
</linearGradient>
<linearGradient id="paint6_linear_4_23940" x1="66.18" y1="169.406" x2="401.08" y2="169.406" gradientUnits="userSpaceOnUse">
<stop stop-color="#8DE4AF"/>
<stop offset="1" stop-color="#389583"/>
</linearGradient>
<radialGradient id="paint7_radial_4_23940" cx="0" cy="0" r="1" gradientUnits="userSpaceOnUse" gradientTransform="translate(-199.888 -14.8046) rotate(180) scale(4400.53 498.828)">
<stop stop-color="#041321"/>
<stop offset="1"/>
</radialGradient>
<clipPath id="clip0_4_23940">
<rect width="84" height="50" fill="white"/>
</clipPath>
</defs>
</svg>
